<svg xmlns="http://www.w3.org/2000/svg" viewBox="0 0 100 100" fill="none" stroke="black">
	<path class="fil0 str0" d="M50 96.07c13.19,0.58 24.82,-1.53 24.82,-1.53l0 -45.01c4.97,18.71 5.85,42.52 5.85,42.52l13.26 0c-0.15,-31.78 4.08,-62.9 -24,-74.25 -2.24,-0.9 1.78,-13.97 -19.93,-13.97 -21.71,0 -17.69,13.07 -19.93,13.97 -28.08,11.35 -23.85,42.47 -24,74.25l13.26 0c0,0 0.88,-23.81 5.85,-42.52l0 45.01c0,0 11.63,2.11 24.82,1.53zm-8.02 -71.6l0 19.02m16.04 -19.02l0 19.02m-27.95 -25.69c3.15,4.06 11.38,7.69 19.93,7.69 8.55,0 16.78,-3.63 19.93,-7.69" />
</svg>