<?xml version="1.0" encoding="UTF-8"?>
<!DOCTYPE svg PUBLIC "-//W3C//DTD SVG 1.1//EN" "http://www.w3.org/Graphics/SVG/1.1/DTD/svg11.dtd">
<!-- Creator: CorelDRAW 2020 (64-Bit) -->
<svg xmlns="http://www.w3.org/2000/svg" xml:space="preserve" width="100px" height="10px" version="1.1" style="shape-rendering:geometricPrecision; text-rendering:geometricPrecision; image-rendering:optimizeQuality; fill-rule:evenodd; clip-rule:evenodd"
viewBox="0 0 100 10"
 xmlns:xlink="http://www.w3.org/1999/xlink"
 xmlns:xodm="http://www.corel.com/coreldraw/odm/2003">
 <defs>
  <style type="text/css">
   <![CDATA[
    .fil0 {fill:black;fill-rule:nonzero}
   ]]>
  </style>
 </defs>
 <g id="Слой_x0020_1">
  <metadata id="CorelCorpID_0Corel-Layer"/>
  <path class="fil0" d="M7.51 9.38l-2.11 0 -3.39 -6.11 0 6.11 -2.01 0 0 -8.76 2.7 0 2.8 5.02 0 -5.02 2.01 0 0 8.76zm0.83 0l2.96 -8.76 2.4 0 2.96 8.76 -2.26 0 -0.55 -1.77 -2.77 0 -0.54 1.77 -2.2 0zm5.03 -3.38l-0.9 -2.9 -0.9 2.9 1.8 0zm13.1 3.38l-2.19 0 0 -5.81 -1.6 3.75 -1.49 0 -1.6 -3.75 0 5.81 -2.07 0 0 -8.76 2.54 0 1.94 4.32 1.93 -4.32 2.54 0 0 8.76zm1.81 0l0 -8.76 5.92 0 0 1.68 -3.73 0 0 1.53 3.44 0 0 1.67 -3.44 0 0 2.2 3.73 0 0 1.68 -5.92 0zm14.71 0.17c-1.31,0 -2.35,-0.4 -3.13,-1.2 -0.77,-0.79 -1.15,-1.91 -1.15,-3.35 0,-1.39 0.38,-2.49 1.16,-3.32 0.77,-0.82 1.81,-1.24 3.13,-1.24 0.34,0 0.66,0.02 0.93,0.06 0.28,0.04 0.55,0.09 0.8,0.16 0.21,0.06 0.42,0.15 0.66,0.25 0.23,0.1 0.42,0.19 0.57,0.26l0 2.09 -0.23 0c-0.1,-0.09 -0.23,-0.21 -0.4,-0.34 -0.16,-0.13 -0.34,-0.25 -0.54,-0.38 -0.21,-0.12 -0.43,-0.23 -0.68,-0.32 -0.24,-0.08 -0.5,-0.13 -0.76,-0.13 -0.32,0 -0.61,0.05 -0.88,0.15 -0.26,0.1 -0.51,0.27 -0.75,0.52 -0.22,0.22 -0.4,0.53 -0.54,0.9 -0.14,0.38 -0.21,0.83 -0.21,1.35 0,0.54 0.07,1 0.22,1.37 0.14,0.37 0.33,0.67 0.57,0.89 0.23,0.22 0.48,0.38 0.76,0.48 0.28,0.1 0.56,0.15 0.84,0.15 0.29,0 0.56,-0.05 0.83,-0.15 0.26,-0.09 0.48,-0.2 0.66,-0.31 0.2,-0.12 0.37,-0.24 0.52,-0.37 0.15,-0.12 0.28,-0.23 0.39,-0.33l0.2 0 0 2.05c-0.16,0.08 -0.35,0.16 -0.56,0.26 -0.21,0.1 -0.43,0.18 -0.65,0.24 -0.28,0.08 -0.53,0.15 -0.77,0.19 -0.24,0.04 -0.57,0.07 -0.99,0.07zm12.23 -4.55c0,1.42 -0.37,2.53 -1.13,3.34 -0.76,0.81 -1.79,1.22 -3.11,1.22 -1.32,0 -2.35,-0.41 -3.11,-1.23 -0.75,-0.83 -1.13,-1.93 -1.13,-3.33 0,-1.4 0.38,-2.51 1.13,-3.33 0.76,-0.82 1.79,-1.23 3.11,-1.23 1.32,0 2.35,0.41 3.11,1.22 0.76,0.81 1.13,1.93 1.13,3.34zm-2.26 0c0,-0.52 -0.05,-0.97 -0.16,-1.34 -0.11,-0.36 -0.25,-0.66 -0.43,-0.9 -0.19,-0.24 -0.41,-0.41 -0.64,-0.51 -0.24,-0.11 -0.49,-0.16 -0.74,-0.16 -0.27,0 -0.52,0.05 -0.74,0.15 -0.22,0.09 -0.43,0.26 -0.63,0.51 -0.18,0.23 -0.33,0.53 -0.44,0.9 -0.11,0.38 -0.17,0.83 -0.17,1.35 0,0.54 0.05,0.98 0.16,1.34 0.1,0.36 0.25,0.65 0.43,0.89 0.19,0.24 0.41,0.42 0.65,0.52 0.23,0.11 0.48,0.16 0.74,0.16 0.26,0 0.51,-0.06 0.75,-0.17 0.24,-0.11 0.45,-0.29 0.63,-0.52 0.19,-0.26 0.33,-0.55 0.44,-0.89 0.1,-0.34 0.15,-0.78 0.15,-1.33zm12.51 4.38l-2.19 0 0 -5.81 -1.59 3.75 -1.5 0 -1.59 -3.75 0 5.81 -2.08 0 0 -8.76 2.54 0 1.94 4.32 1.93 -4.32 2.54 0 0 8.76zm8.55 -6c0,0.41 -0.06,0.8 -0.19,1.17 -0.13,0.37 -0.32,0.67 -0.56,0.92 -0.15,0.15 -0.31,0.29 -0.49,0.42 -0.18,0.13 -0.38,0.24 -0.59,0.33 -0.22,0.09 -0.45,0.16 -0.7,0.21 -0.26,0.05 -0.54,0.08 -0.86,0.08l-1.15 0 0 2.87 -2.2 0 0 -8.76 3.4 0c0.51,0 0.94,0.05 1.31,0.14 0.37,0.09 0.7,0.24 1,0.44 0.33,0.22 0.58,0.51 0.76,0.88 0.18,0.36 0.27,0.8 0.27,1.3zm-2.26 0.06c0,-0.25 -0.06,-0.46 -0.18,-0.64 -0.11,-0.17 -0.26,-0.3 -0.42,-0.36 -0.21,-0.09 -0.41,-0.15 -0.6,-0.16 -0.18,-0.01 -0.44,-0.02 -0.77,-0.02l-0.31 0 0 2.61 0.15 0c0.21,0 0.41,0 0.59,0 0.19,-0.01 0.35,-0.02 0.48,-0.04 0.12,-0.02 0.24,-0.06 0.38,-0.12 0.13,-0.06 0.23,-0.12 0.3,-0.19 0.15,-0.14 0.25,-0.29 0.3,-0.45 0.05,-0.16 0.08,-0.37 0.08,-0.63zm2.49 5.94l2.96 -8.76 2.4 0 2.97 8.76 -2.27 0 -0.54 -1.77 -2.77 0 -0.55 1.77 -2.2 0zm5.03 -3.38l-0.9 -2.9 -0.9 2.9 1.8 0zm11.67 3.38l-2.12 0 -3.38 -6.11 0 6.11 -2.01 0 0 -8.76 2.7 0 2.8 5.02 0 -5.02 2.01 0 0 8.76zm9.05 -8.76l-3.02 5.1 0 3.66 -2.21 0 0 -3.55 -3.07 -5.21 2.51 0 1.72 3.15 1.66 -3.15 2.41 0z"/>
 </g>
</svg>
