<svg xmlns="http://www.w3.org/2000/svg" viewBox="0 0 100 100" fill="none" stroke="black">
	<path d="M10 90l47.32 -47.32m-20.24 -5.6c15.61,-15.71 27.64,-14.46 38.5,-12.66l14.42 -14.42m-0.91 78.67c2.91,-7.06 4.1,-13.75 4.1,-21.86 0,-33.14 -26.86,-60 -60,-60 -8.16,0 -14.79,1.16 -21.88,4.11 5.36,-2.09 12.64,-0.85 19.78,6.29 7.14,7.14 9.82,16.03 5.99,19.87 3.83,-3.84 13.1,-1.54 20.24,5.6 7.14,7.14 9.44,16.41 5.6,20.24 3.84,-3.83 12.73,-1.15 19.87,5.99 7.14,7.14 7.8,15.44 6.3,19.76zm-26.17 -25.75c15.71,-15.62 14.5,-27.68 12.7,-38.54" />
</svg>