<?xml version="1.0" encoding="UTF-8" standalone="no"?>
<!-- Created with Inkscape (http://www.inkscape.org/) -->

<svg
   width="125.45959mm"
   height="133.13396mm"
   viewBox="0 0 474.17801 503.18347"
   version="1.1"
   id="svg1"
   xml:space="preserve"
   inkscape:version="1.4.2 (f4327f4, 2025-05-13)"
   sodipodi:docname="D-180.svg"
   xmlns:inkscape="http://www.inkscape.org/namespaces/inkscape"
   xmlns:sodipodi="http://sodipodi.sourceforge.net/DTD/sodipodi-0.dtd"
   xmlns="http://www.w3.org/2000/svg"
   xmlns:svg="http://www.w3.org/2000/svg"
   xmlns:rdf="http://www.w3.org/1999/02/22-rdf-syntax-ns#"
   xmlns:cc="http://creativecommons.org/ns#"
   xmlns:dc="http://purl.org/dc/elements/1.1/"
   xmlns:inkstitch="http://inkstitch.org/namespace"><sodipodi:namedview
     id="namedview1"
     pagecolor="#494949"
     bordercolor="#eeeeee"
     borderopacity="1"
     inkscape:showpageshadow="false"
     inkscape:pageopacity="0"
     inkscape:pagecheckerboard="false"
     inkscape:deskcolor="#383838"
     inkscape:document-units="mm"
     inkscape:zoom="0.7349537"
     inkscape:cx="-596.63622"
     inkscape:cy="67.351181"
     inkscape:window-width="1920"
     inkscape:window-height="1027"
     inkscape:window-x="-8"
     inkscape:window-y="-8"
     inkscape:window-maximized="1"
     inkscape:current-layer="layer5"
     showgrid="true"
     inkscape:clip-to-page="false"
     showborder="false"><inkscape:grid
       id="grid6"
       units="mm"
       originx="991.02843"
       originy="321.97795"
       spacingx="3.7795276"
       spacingy="3.7795276"
       empcolor="#ffffff"
       empopacity="0.16078431"
       color="#ffffff"
       opacity="0.05882353"
       empspacing="10"
       enabled="true"
       visible="true"
       dotted="false" /><inkscape:page
       x="0"
       y="-2.8688284e-14"
       width="474.17801"
       height="503.18344"
       id="page2"
       margin="0"
       bleed="0" /></sodipodi:namedview><title
     id="title1">D-180mm</title><metadata
     id="metadata6"><inkstitch:min_stitch_len_mm>0.1</inkstitch:min_stitch_len_mm><inkstitch:collapse_len_mm>3</inkstitch:collapse_len_mm><inkstitch:inkstitch_svg_version>3</inkstitch:inkstitch_svg_version><rdf:RDF><cc:Work
         rdf:about=""><dc:title>D-180mm</dc:title></cc:Work></rdf:RDF></metadata><defs
     id="defs1" /><g
     inkscape:groupmode="layer"
     id="layer5"
     inkscape:label="red"
     style="display:inline"
     transform="translate(991.02843,321.97798)"><g
       id="g26"
       inkscape:label="arm"><g
         id="g25"
         inkscape:label="blue"><path
           style="display:inline;opacity:1;fill:#0000ff;fill-opacity:1;stroke:#183988;stroke-width:0.377953;stroke-linejoin:round;stroke-opacity:1"
           d="m -990.70872,20.919686 c 3.2315,-7.653544 4.65215,-19.1379038 10.71496,-20.5795285 44.71271,-10.6318645 71.94332,11.7354335 71.94332,11.7354335 0,0 58.54509,47.986341 83.50866,40.988979 22.45039,-6.292913 27.2126,-27.892915 22.11024,-64.970083 2.04095,-43.029922 -13.43791,-54.146494 -15.9874,-67.011027 -4.70798,-23.75615 -9.80008,-25.41895 -15.30709,-45.92127 -5.75948,-21.44224 -7.59314,-16.94646 -10.54489,-28.23307 -7.57052,-28.94745 -13.43622,-13.26614 -23.9811,-45.5811 -10.54488,-32.31496 -8.33708,-32.64124 -4.42204,-43.2 5.6126,-15.137 23.81292,-26.20593 28.91338,-22.11024 18.57079,14.91243 16.23207,6.27082 22.79056,14.79685 8.50393,11.05512 18.09537,47.32356 30.10394,64.11969 -5.6126,8.16378 11.28539,23.71398 21.42991,50.34331 4.08189,10.71495 1.88172,24.35094 24.15119,40.308659 8.48965,-12.089559 -7.98416,-29.708429 -5.10237,-48.982679 6.84497,-9.93508 0.64259,-81.00436 -5.8204,-112.63901 -1.8517,-20.45486 -1.49756,-22.04004 -0.38747,-45.36414 1.87087,-6.63308 6.25946,-10.2015 9.94961,-15.64725 7.64814,-1.32341 12.05242,-1.7663 23.47086,-4.76221 26.19213,1.87087 24.51944,37.62742 33.33545,49.32285 -2.38111,50.17323 -5.22337,112.73768 14.45669,127.89921 7.11059,-2.70056 11.73544,-21.94015 13.43622,-33.33543 4.25196,-12.92599 -4.88439,-42.43709 -2.04095,-77.89607 0.99754,-12.43973 3.47795,-14.50714 8.33387,-22.45039 7.99369,-1.87087 8.33385,-9.86456 13.77637,-11.73543 10.37481,-6.29291 27.76814,-5.08784 41.15906,16.66771 3.91181,20.40946 -2.55119,24.15119 3.74173,36.56693 -3.91182,17.85827 -16.71561,59.8318 -11.05512,92.35276 4.3644,25.07465 -14.11654,48.472444 -4.25197,61.39843 14.4567,-17.17795 3.96654,-18.15872 14.96693,-42.17953 11.9884,-24.32719 15.30143,-39.34536 18.3685,-47.11181 11.41691,-14.58031 6.54109,-21.54563 15.13702,-34.01575 12.25126,-2.39189 0.21878,-17.3471 38.94803,-10.88504 10.14636,10.85085 7.20617,23.51191 7.82362,41.32913 -10.43939,14.62677 -6.64395,48.4291 -32.31496,80.957487 -3.06142,24.831499 -8.16378,21.77008 -7.48347,27.892916 0.68032,6.122835 0.77735,34.89019 2.15059,61.2696175 1.02379,19.6668355 -1.81761,34.2925645 -3.34114,48.4311755 5.44252,13.946458 4.38192,39.181722 -2.89134,80.107094 -17.85827,23.9811 -31.29449,41.15906 -46.26142,37.75748 -14.45669,2.55119 -30.44409,19.55906 -43.2,18.70866 -28.40315,0 -53.34093,4.05246 -74.83466,-0.17007 -64.11968,-9.86457 -91.84252,-54.4252 -120.7559,-53.23465 -9.86457,-8.67401 -37.92526,-37.757487 -83.84883,-64.62993 -12.41575,-10e-7 -63.94961,-15.817325 -60.88819,-40.308664 z"
           id="path2"
           sodipodi:nodetypes="cscscssssssscscccccccccsccccscccccccsscccccccc"
           inkscape:label="blue" /></g><g
         id="g24"
         inkscape:label="green"
         style="display:inline"><path
           style="fill:#208d16;fill-opacity:1;stroke:none;stroke-width:0.377953;stroke-linejoin:round;stroke-opacity:1"
           d="m -981.72684,84.992963 c 2.31712,3.467267 6.20801,7.858994 25.3712,9.610128 28.93238,7.288089 48.07664,-4.085047 49.21967,-13.20424 1.42252,-11.349001 -18.20905,-27.461673 -21.82845,-28.373969 -5.88777,-2.867054 -52.22535,-10.566813 -63.34327,3.484111 -7.32435,15.050545 10.58085,28.48397 10.58085,28.48397 z"
           id="path3"
           sodipodi:nodetypes="ccsccc"
           transform="translate(12.239999,-42.479998)" /><path
           style="fill:#208d16;fill-opacity:1;stroke:none;stroke-width:0.377953;stroke-linejoin:round;stroke-opacity:1"
           d="m -830.03405,108.86563 c -39.06077,30.1683 -0.96211,35.83862 23.81224,62.77772 27.42015,23.33119 48.34606,37.04126 60.37244,38.72496 12.02638,1.68369 36.47346,-0.12386 63.25877,-27.90121 6.49425,-6.73477 40.5213,3.2395 49.06765,11.78586 2.88633,2.88633 30.06596,-0.48106 33.19282,-5.05109 9.6211,-2.88633 26.45804,-37.28178 28.38226,-50.02975 1.92422,-12.74797 -2.44611,-36.21356 -11.06427,-56.764528 -3.12687,-7.456357 4.81055,-28.382265 7.21583,-33.914401 2.40527,-5.532136 1.20264,-39.687064 0.96211,-44.257089 -0.24053,-4.570026 -2.16475,-30.547013 3.84844,-39.927592 14.33258,-22.358838 11.94924,-82.6621 -1.92422,-66.14511 -8.29199,9.871991 -12.9885,-6.25372 -22.36907,6.73478 -9.38058,12.98849 -12.9885,39.206006 -12.74797,44.257087 0.24053,5.051081 -13.9506,34.395456 -23.81224,27.901209 -9.86163,-6.494247 -3.36739,-37.041256 4.3295,-53.637666 7.69688,-16.59641 -5.77266,-74.80411 -14.67219,-76.24727 -13.73998,-2.22809 14.7492,-83.17375 0.72159,-87.79259 -19.72327,-6.49425 -25.97699,28.62278 -25.97699,37.04125 0,8.41847 13.27307,122.599642 -1.44317,154.178233 -19.96379,-5.291608 -24.04412,-4.270819 -24.77435,-39.687063 -0.48106,-23.33119 -10.34269,-13.71007 -18.76116,-43.29498 -4.7911,-16.83733 1.77696,-34.86464 4.08897,-53.39714 0.91435,-7.32921 -12.74796,-56.76453 -24.05276,-47.62448 -11.3048,9.14005 -26.21752,-0.48105 -27.90121,21.40696 -1.68369,21.88802 24.53382,65.90458 21.64749,77.20938 -2.88633,11.3048 -25.25541,43.05445 -9.62111,57.96717 15.6343,14.91271 -8.8155,68.5334799 -31.26859,11.54533 -13.46956,-61.33456 -74.14793,-115.49129 -85.1468,-72.1583 21.28458,19.79531 27.06349,58.594833 34.293,78.063149 7.66501,20.641082 28.59766,36.741118 26.7009,49.221395 -6.72407,44.242821 33.99933,72.399302 -26.35791,119.015776 z"
           id="path4"
           sodipodi:nodetypes="scssscssssssssssssscsssssssccsss"
           transform="translate(12.239999,-42.479998)" /></g><g
         id="g23"
         inkscape:label="yellow"
         style="display:inline"
         transform="translate(12.239998,-42.479996)"><path
           style="fill:#faca2f;fill-opacity:1;stroke:none;stroke-width:0.377953;stroke-linejoin:round;stroke-opacity:1"
           d="m -989.62416,54.987439 c 10e-6,8.779258 3.07366,25.761773 19.84354,36.079149 7.1628,4.406787 18.62653,2.474868 31.86991,5.171345 9.74096,-1.582102 20.20432,-0.841847 20.44485,-13.710077 1.95024,-8.770179 -7.29243,-32.842312 -35.47783,-34.275192 -30.32097,-1.541447 -36.68047,6.734775 -36.68047,6.734775 z"
           id="path5"
           sodipodi:nodetypes="csccsc" /><path
           style="fill:#faca2f;fill-opacity:1;stroke:none;stroke-width:0.377953;stroke-linejoin:round;stroke-opacity:1"
           d="m -868.27795,-209.83352 c -10.34269,12.26691 -9.92837,16.21487 -9.62111,26.45804 0.3122,10.4077 4.08897,20.68539 3.84845,23.81225 -0.70489,9.16347 23.93864,32.4739 27.42015,38.00336 4.08897,6.49425 13.22902,18.03958 18.03957,46.42184 4.81056,28.382267 27.66068,40.168123 34.15493,34.876514 6.49425,-5.291608 8.17153,-5.492591 11.06427,-23.331184 1.44317,-8.899526 -10.37742,-30.708597 -14.67218,-44.73814 -3.60792,-11.78586 -11.78499,-16.08386 -15.87483,-32.95229 -9.6211,-15.6343 -14.67219,-42.5734 -16.59641,-48.34606 -1.92422,-5.77267 -19.96379,-31.2686 -37.76284,-20.20433 z"
           id="path6"
           sodipodi:nodetypes="cssssssscsc" /><path
           style="display:inline;fill:#faca2f;fill-opacity:1;stroke:none;stroke-width:0.377953;stroke-linejoin:round;stroke-opacity:1"
           d="m -751.64982,-266.45845 c -17.68819,23.1307 -9.95711,23.71641 -11.65791,32.39042 -4.2103,21.47252 32.95776,85.28674 30.61418,96.26456 -3.2315,15.13701 -20.40945,34.69607 -10.88504,64.28977 9.52441,29.593699 30.27402,21.770077 35.37638,19.388975 5.10236,-2.381102 14.42154,-22.638179 4.08189,-47.962205 -5.47975,-13.42108 -15.14706,-14.15582 -19.04882,-28.91339 -2.72993,-10.32538 10.70351,-58.36021 11.86425,-78.11596 -1.75811,-7.37868 5.79523,-46.0153 -26.49102,-61.3486 -10.58065,-2.28429 -13.85391,4.00643 -13.85391,4.00643 z"
           id="path7"
           sodipodi:nodetypes="cssssssccc" /><path
           style="fill:#faca2f;fill-opacity:1;stroke:none;stroke-width:0.377953;stroke-linejoin:round;stroke-opacity:1"
           d="m -794.94237,-7.52315 c 1.70079,38.437794 10.38751,66.937646 4.42205,79.937008 -11.39527,24.831497 -32.65512,39.118112 -40.47874,46.601572 -7.82362,7.48347 -7.26614,14.66253 -3.74173,20.06929 14.96692,22.96064 43.25752,32.49294 45.5811,36.0567 12.1844,18.68763 54.55566,32.05929 73.13386,24.83149 18.01185,-7.00746 19.72913,-17.00787 32.31496,-24.15118 12.58583,-7.1433 41.49922,4.25197 47.9622,9.01418 6.3518,4.68028 18.02835,6.29291 22.4504,1.87086 6.31357,-6.31356 13.85508,-12.26853 17.17795,-16.49764 9.35433,-11.90551 18.58638,-52.93315 17.00788,-61.5685 -2.89134,-15.817323 -10.48864,-18.329469 -11.56536,-27.212598 -0.68031,-5.612598 8.06639,-25.335025 6.29292,-37.417323 -0.95023,-6.473694 0.34015,-23.640945 4.7622,-37.4173233 -2.72126,-5.102362 -5.44252,-31.8047247 -3.40158,-38.6078747 2.49198,-8.306607 17.34804,-33.675591 20.74961,-40.478741 3.40158,-6.80315 26.39187,-63.59376 25.51181,-78.57638 -5.27244,-11.56535 -7.47419,-17.52354 -10.05843,-19.0064 -5.62156,-3.22569 -15.99363,1.83668 -24.07695,10.85293 -5.94292,6.62881 -30.74306,77.734119 -26.99926,91.706159 3.7438,13.972036 -11.7739,42.164648 -17.24574,47.16084 -5.67304,5.179891 -13.15356,13.6154527 -23.22655,2.908432 -11.35294,-12.067551 -8.08332,-22.835967 -7.68981,-25.95782 0.78958,-6.264 14.33204,-35.663541 13.85099,-44.322531 -0.48106,-8.659 -3.1235,-38.51189 5.17988,-55.71988 2.76072,-5.72134 1.54263,-37.49469 6.88776,-46.65736 3.90181,-6.68851 0.0658,-52.59464 -18.19256,-51.71846 -12.50749,0.60021 -5.17134,2.88634 -9.50084,5.53214 -4.3295,2.6458 -10.16088,6.11144 -12.86823,15.39377 -6.73478,23.09066 0,85.62784 -0.96211,91.88157 -1.86489,12.12194 -16.83694,28.38226 -19.24221,38.00337 -2.21985,8.879425 -6.25372,20.44485 -2.16475,27.90121 4.08897,7.456354 10.76863,15.633581 6.49425,23.571707 -3.36739,6.253719 -7.69689,6.975302 -13.46955,3.126859 -5.77266,-3.848442 -15.76198,-2.185476 -19.72327,1.683694 -10.34269,10.102163 -39.68014,6.824007 -54.59978,7.937413 -16.11536,1.202639 -29.63561,13.041702 -30.57237,19.268817 z"
           id="path8"
           sodipodi:nodetypes="csssssssssssscsscsssssssssssssssssssc" /></g><g
         id="g22"
         inkscape:label="orange"
         style="display:inline;opacity:1"><path
           style="fill:#fa732f;fill-opacity:1;stroke:none;stroke-width:0.377953;stroke-linejoin:round;stroke-opacity:1"
           d="m -967.23785,21.089765 c 1.02047,5.52756 -1.80783,6.59386 5.35748,12.925985 3.6567,3.231496 7.31339,6.633071 14.28661,8.16378 6.97323,1.530709 23.04567,5.612598 31.88977,-0.170079 8.84409,-5.782677 0.30614,-20.902678 -4.59213,-21.174804 -4.59212,-0.255118 -7.05826,-8.759055 -15.90236,-8.418898 -8.84409,0.340158 -16.32756,2.466141 -21.42992,2.63622 -5.10236,0.170079 -7.90866,1.615749 -9.60945,6.037796 z"
           id="path9"
           sodipodi:nodetypes="cssssssc"
           sodipodi:insensitive="true" /><path
           style="fill:#fa732f;fill-opacity:1;stroke:none;stroke-width:0.377953;stroke-linejoin:round;stroke-opacity:1"
           d="m -725.79226,-130.60653 c -0.24053,9.86164 1.08237,11.78585 6.37398,21.40696 5.29161,9.621113 13.83034,5.53214 19.60301,4.08897 5.77267,-1.44316 9.24981,-12.50228 7.81715,-14.91271 -6.32623,-10.64382 -4.52186,-18.84166 -7.93741,-19.84354 -2.59151,-0.76016 -8.17793,-17.07746 -11.30481,-18.40036 -4.85827,-2.05541 -9.20912,2.05052 -11.90612,6.73478 -2.28501,3.9687 -4.3295,18.52063 -2.6458,20.9259 z"
           id="path10"
           sodipodi:nodetypes="cssssssc" /><path
           style="fill:#fa731e;fill-opacity:1;stroke:none;stroke-width:0.377953;stroke-linejoin:round;stroke-opacity:1"
           d="m -653.61263,-139.63466 c -5.44252,9.01417 -4.93228,5.78268 -5.44252,9.01417 -0.51023,3.2315 -4.42205,13.26614 -2.04094,19.38898 2.3811,6.12283 9.35433,17.518119 16.32756,14.966937 6.97322,-2.551181 12.92598,-9.014187 14.45669,-13.776387 1.53071,-4.76221 5.10236,-18.87874 3.40157,-25.00158 -1.70078,-6.12283 -7.48346,-13.43622 -14.45669,-10.03464 -6.97323,3.40157 -12.24567,5.44252 -12.24567,5.44252 z"
           id="path11" /><path
           style="fill:#fa731e;fill-opacity:1;stroke:none;stroke-width:0.377953;stroke-linejoin:round;stroke-opacity:1"
           d="m -544.55466,-201.56219 c 0,0 -9.38058,8.17794 -12.02638,14.43166 -2.64581,6.25372 -6.9753,25.49593 -9.14005,29.82543 -2.16475,4.3295 -2.40528,14.43166 -4.08897,17.31799 -1.6837,2.88633 -4.08897,9.14005 -3.84845,15.6343 0.24053,6.49425 2.12707,15.03043 4.3295,13.9506 6.99741,-3.43075 9.86164,-14.91271 9.86164,-14.91271 z"
           id="path12"
           sodipodi:nodetypes="cssssscc" /><path
           style="fill:#fa731e;fill-opacity:1;stroke:none;stroke-width:0.377953;stroke-linejoin:round;stroke-opacity:1"
           d="m -774.87878,116.33387 c 0,0 -18.02835,-2.3811 -24.8315,-10.20473 -6.80315,-7.823623 -10.54488,-13.6063 -9.52441,-18.708663 1.02047,-5.102362 24.15118,-21.089765 25.51181,-24.49134 1.36063,-3.401575 8.16378,-8.503937 17.34803,-15.987402 9.18425,-7.483465 59.52757,-18.028348 75.51497,-13.266142 15.9874,4.762205 11.56536,12.585827 21.77008,11.225197 10.20473,-1.36063 22.11024,-14.626773 25.51181,-20.069293 3.40158,-5.44252 10.88504,-60.207877 10.88504,-60.207877 0,0 -76.02521,54.085042 -85.37954,48.98268 -8.01288,-4.3706628 -14.62026,-12.85215882 -19.72913,-18.7086625 -6.97323,-7.9937015 -27.72283,-5.4425205 -33.16535,-9.8645675 -5.44252,-4.422047 -5.95276,-11.905512 -4.93229,-15.307087 1.02048,-3.401576 2.72126,-15.647245 5.78268,-18.708662 3.06142,-3.061419 11.56535,-7.823624 23.13071,-7.823624 11.56535,0 118.37481,18.368505 118.37481,18.368505 l 43.54016,32.6551205 2.72126,30.2740175 c 0,0 -8.16378,9.52441 -7.14331,16.667717 1.02047,7.143308 11.2252,11.225198 13.6063,20.40945 2.3811,9.184252 0.68032,22.110238 -1.02047,30.614176 -1.70079,8.503927 -15.9874,40.478747 -27.89291,42.179537 -11.90552,1.70078 -38.09764,-12.58583 -45.92126,-12.92599 -7.82363,-0.34016 -124.15749,-5.10236 -124.15749,-5.10236 z"
           id="path13"
           sodipodi:nodetypes="cssssssscsssssscccsssssc" /></g><g
         id="g21"
         inkscape:label="red"><path
           style="fill:#ff0000;fill-opacity:1;stroke:none;stroke-width:0.377953;stroke-linejoin:round;stroke-opacity:1"
           d="m -842.57012,-242.53229 c -2.38111,1.02047 -6.80315,2.04094 -10.20473,8.50393 -3.40157,6.46299 -4.42205,20.06929 -2.72126,24.49134 1.70079,4.42205 14.62677,25.17165 17.34803,28.57323 2.72126,3.40157 19.04882,22.79055 20.74961,28.91339 1.70079,6.12283 7.82362,28.23307 9.86457,34.3559 2.04094,6.12284 11.22519,20.409455 13.6063,21.770085 2.3811,1.36063 7.48346,3.741732 9.52441,2.381102 2.04094,-1.36063 5.78267,-7.823627 5.78267,-11.225197 0,-3.40158 -5.44252,-21.42993 -9.18425,-26.19213 -3.74173,-4.76221 -13.94646,-23.81102 -17.68819,-34.69606 -3.74173,-10.88504 -9.18425,-27.2126 -14.28661,-44.90079 -5.10236,-17.68819 -15.64725,-35.03622 -22.79055,-31.9748 z"
           id="path14" /><path
           style="fill:#ff0000;fill-opacity:1;stroke:none;stroke-width:0.377953;stroke-linejoin:round;stroke-opacity:1"
           d="m -716.3717,-197.63151 c 0,0 5.78268,-18.19842 4.93229,-30.44409 -0.8504,-12.24567 -1.87087,-3.40158 0.17007,-12.07559 2.04095,-8.67402 4.59214,-19.2189 3.40159,-24.49134 -1.19056,-5.27244 -8.67403,-33.67559 -11.39529,-34.69606 -2.72126,-1.02048 -9.35433,-2.38111 -12.58582,0.85039 -3.2315,3.2315 -6.97323,5.95275 -7.31339,10.3748 -0.34016,4.42205 1.36063,28.91339 2.3811,32.31496 1.02048,3.40158 6.80315,21.94016 8.33386,27.72284 1.53071,5.78268 2.04095,12.92598 5.44252,18.87874 3.40158,5.95275 6.63307,11.56535 6.63307,11.56535 z"
           id="path15" /><path
           style="fill:#ff0000;fill-opacity:1;stroke:none;stroke-width:0.377953;stroke-linejoin:round;stroke-opacity:1"
           d="m -726.26709,-125.42661 c 0,0 3.96248,10.57464 8.5325,12.73939 4.57003,2.16475 11.54534,3.72818 16.59642,-1.56343 5.05108,-5.29161 7.3264,-11.23195 6.54705,-13.9728 -0.77936,-2.74085 -0.77439,-12.24471 -2.69861,-14.04867 -1.92422,-1.80396 -8.53998,-13.09937 -13.84998,-16.19393 -5.30998,-3.09456 -10.59709,2.66266 -11.72285,4.43735 -1.12575,1.77469 -4.36315,14.91352 -4.43619,17.35989 -0.073,2.44638 1.03166,11.2422 1.03166,11.2422 z"
           id="path16"
           sodipodi:nodetypes="csssssssc" /><path
           style="fill:#ff0000;fill-opacity:1;stroke:none;stroke-width:0.377953;stroke-linejoin:round;stroke-opacity:1"
           d="m -634.95526,-107.3026 c -4.21416,2.25211 -14.74197,4.68472 -19.17796,-0.74764 -4.43599,-5.43237 -5.30474,-18.14526 -4.16536,-24.97 1.13939,-6.82475 2.90012,-7.20969 7.57729,-15.45851 7.69317,-13.56795 12.8349,-32.0538 10.79395,-35.79553 -2.04094,-3.74173 -2.63017,-31.04542 -2.63017,-35.63754 0,-4.59213 -2.89134,-32.14488 0,-36.56693 2.89133,-4.42205 9.86456,-15.9874 14.62677,-16.15748 4.7622,-0.17008 11.05512,6.80315 11.90551,10.88504 0.85039,4.08189 -0.68032,24.15118 0.34016,27.89291 1.02047,3.74173 -2.04095,12.75591 -3.40158,14.96693 -1.36063,2.21102 -9.35433,37.07717 -9.69449,43.71024 -0.34015,6.63307 -2.55118,20.06929 -1.02047,24.66141 1.53071,4.59213 2.89134,15.47716 2.89134,15.47716 0,0 1.42325,22.67997 -8.04499,27.73994 z"
           id="path17"
           sodipodi:nodetypes="szcsssssssssscs" /><path
           style="fill:#ff0000;fill-opacity:1;stroke:none;stroke-width:0.377953;stroke-linejoin:round;stroke-opacity:1"
           d="m -569.32901,-110.40221 c 0,0 -4.83764,-1.72189 0,0 4.83764,1.72188 6.36835,-1.50961 9.76992,-7.29229 3.40158,-5.78268 3.57165,-14.45669 7.9937,-21.42992 4.42205,-6.97323 8.50394,-22.11024 11.90552,-25.00157 3.40157,-2.89134 6.46299,-11.39528 6.29291,-15.13701 -0.17008,-3.74174 2.03973,-15.16544 2.04094,-20.23938 8.3e-4,-3.47789 -8.49819,-6.62528 -13.22864,-2.05981 -4.73045,4.56547 -24.77435,91.15998 -24.77435,91.15998 z"
           id="path18"
           sodipodi:nodetypes="csssssssc" /><path
           style="display:inline;fill:#ff0000;fill-opacity:1;stroke:none;stroke-width:0.377953;stroke-linejoin:round;stroke-opacity:1"
           d="m -746.74534,-58.008941 c 0,0 26.00416,-0.198756 34.54289,1.845729 8.53874,2.044485 16.80776,-0.900208 23.06148,-1.862319 6.25372,-0.962111 23.84143,-5.473775 28.77224,-4.99272 4.93082,0.481056 19.17678,0.340157 25.79129,7.435723 6.61451,7.095567 11.78585,9.853089 15.03298,9.732826 3.24712,-0.120264 3.32965,2.766068 7.53889,2.766068 4.20923,0 4.19214,-2.616624 8.16084,-2.135569 3.96871,0.481056 15.75456,5.411873 16.47615,11.90612 0.72158,6.494248 7.45086,14.743655 -1.55076,46.051036 -4.5167,15.708941 -17.42385,21.072207 -11.71936,33.180294 1.26844,2.692342 19.34517,12.944814 19.6293,23.592017 0.10433,3.909409 0.40556,13.345903 -1.01529,21.332921 -1.97801,11.119035 -10.93626,26.276415 -17.04003,31.313435 -13.48841,11.13106 -34.57022,-4.4438 -53.31505,-6.39373 -14.16994,-1.47404 -24.94278,6.00593 -35.04832,16.28681 -4.4258,4.50259 -14.43166,11.3048 -20.92591,13.9506 -6.49425,2.64581 -23.41623,5.3233 -32.31575,0.75327 -8.89953,-4.57002 -23.14651,-14.40248 -27.71654,-15.60512 -4.57003,-1.20264 -26.54035,-20.97455 -30.78007,-35.931943 -4.23971,-14.957397 17.35596,-25.592256 24.09525,-36.754954 6.7393,-11.162698 12.83891,-27.67401 16.92788,-29.83876 4.08897,-2.164749 9.86163,-2.405277 15.87482,-0.721583 6.01319,1.683693 12.74797,2.405276 18.28011,0.962111 5.53213,-1.443166 10.34269,-5.291609 18.28011,-5.051081 7.93741,0.240527 9.32569,2.885121 14.84831,9.863353 5.52262,6.978232 5.58865,24.552815 12.34704,33.357422 4.61391,6.010842 22.85583,2.677465 29.08812,-0.40685 13.84306,-6.850833 11.43225,-34.682444 13.9506,-46.181313 2.51835,-11.4988684 2.97571,-15.0646597 -0.41374,-19.9926475 -3.38944,-4.9279878 -6.50674,-8.871873 -14.01877,-11.6179515 -5.03039,-1.838898 -10.99263,-0.790592 -15.2726,-0.195587 -10.19964,1.417958 -22.3855,14.3828408 -41.48775,14.2500358 -11.23812,-0.078131 -22.24521,-13.7319138 -30.39598,-20.3324538 -6.30599,-5.106632 -21.37331,-0.794169 -26.11466,-1.372353 -11.75587,-3.572056 -5.6776,-17.953427 -4.52962,-23.770683 2.47214,-12.527211 20.9619,-15.422153 20.9619,-15.422153 z"
           id="path19"
           sodipodi:nodetypes="csssssssssssssssssszzsssszsszzsssscsc" /><path
           style="fill:#ff0000;fill-opacity:1;stroke:none;stroke-width:0.377953;stroke-linejoin:round;stroke-opacity:1"
           d="m -969.44888,22.280316 c 0,0 -1.78583,5.017323 0.59528,7.738583 2.3811,2.721261 11.73543,11.140159 15.47717,11.310237 3.74173,0.170079 15.81732,3.486615 17.00787,4.847245 1.19055,1.36063 10.11968,-0.08504 12.16063,-1.105513 2.04094,-1.020472 5.95276,-5.952756 5.44252,-12.07559 -0.51024,-6.122836 -4.59213,-6.803151 -4.08189,-9.354332 0.51024,-2.551181 -0.51024,-8.16378 -4.7622,-10.544882 -4.25197,-2.381102 -14.11654,-0.170078 -19.55906,-1.020472 -5.44252,-0.850394 -18.7937,0.680315 -19.98425,2.551181 -1.19055,1.870866 -2.29607,7.653543 -2.29607,7.653543 z"
           id="path20"
           sodipodi:nodetypes="csssssssssc" /></g></g></g></svg>
