<?xml version="1.0" encoding="UTF-8" standalone="no"?>
<!-- Created with Inkscape (http://www.inkscape.org/) -->
<svg
   xmlns:svg="http://www.w3.org/2000/svg"
   xmlns="http://www.w3.org/2000/svg"
   version="1.0"
   x="0.0000000"
   y="0.0000000"
   width="375.00000"
   height="375.00000"
   id="svg1">
  <defs
     id="defs3" />
  <path
     d="M 126.98900,140.56718 C 123.80148,140.56721 121.27023,141.65706 119.39525,143.83672 C 117.54367,146.01643 116.61789,149.00471 116.61790,152.80156 C 116.61789,156.57501 117.54367,159.56329 119.39525,161.76640 C 121.27023,163.94610 123.80148,165.03594 126.98900,165.03593 C 130.17647,165.03594 132.69600,163.94610 134.54759,161.76640 C 136.42256,159.56329 137.36006,156.57501 137.36009,152.80156 C 137.36006,149.00471 136.42256,146.01643 134.54759,143.83672 C 132.69600,141.65706 130.17647,140.56721 126.98900,140.56718 M 141.08665,118.31328 L 141.08665,124.78203 C 139.30537,123.93832 137.50068,123.29379 135.67259,122.84843 C 133.86787,122.40317 132.07491,122.18051 130.29369,122.18047 C 125.60616,122.18051 122.02023,123.76254 119.53587,126.92656 C 117.07492,130.09066 115.66867,134.87191 115.31712,141.27031 C 116.69992,139.23128 118.43430,137.67269 120.52025,136.59453 C 122.60617,135.49300 124.90304,134.94222 127.41087,134.94218 C 132.68428,134.94222 136.84443,136.54769 139.89134,139.75859 C 142.96161,142.94612 144.49677,147.29377 144.49681,152.80156 C 144.49677,158.19220 142.90302,162.51641 139.71556,165.77422 C 136.52803,169.03203 132.28584,170.66093 126.98900,170.66093 C 120.91867,170.66093 116.27805,168.34062 113.06712,163.70000 C 109.85618,159.03595 108.25071,152.28595 108.25072,143.45000 C 108.25071,135.15316 110.21946,128.54379 114.15697,123.62187 C 118.09445,118.67661 123.37960,116.20396 130.01244,116.20390 C 131.79366,116.20396 133.58662,116.37974 135.39134,116.73125 C 137.21943,117.08286 139.11787,117.61021 141.08665,118.31328 M 171.95384,121.82890 C 168.29757,121.82895 165.54367,123.63364 163.69212,127.24297 C 161.86399,130.82894 160.94992,136.23128 160.94994,143.45000 C 160.94992,150.64533 161.86399,156.04767 163.69212,159.65703 C 165.54367,163.24297 168.29757,165.03594 171.95384,165.03593 C 175.63350,165.03594 178.38741,163.24297 180.21556,159.65703 C 182.06709,156.04767 182.99287,150.64533 182.99290,143.45000 C 182.99287,136.23128 182.06709,130.82894 180.21556,127.24297 C 178.38741,123.63364 175.63350,121.82895 171.95384,121.82890 M 171.95384,116.20390 C 177.83663,116.20396 182.32490,118.53599 185.41869,123.20000 C 188.53583,127.84066 190.09443,134.59066 190.09447,143.45000 C 190.09443,152.28595 188.53583,159.03595 185.41869,163.70000 C 182.32490,168.34062 177.83663,170.66093 171.95384,170.66093 C 166.07101,170.66093 161.57102,168.34062 158.45384,163.70000 C 155.36009,159.03595 153.81321,152.28595 153.81322,143.45000 C 153.81321,134.59066 155.36009,127.84066 158.45384,123.20000 C 161.57102,118.53599 166.07101,116.20396 171.95384,116.20390"
     transform="scale(1.255735,1.453502)"
     style="font-size:72.000000px;font-style:normal;font-variant:normal;font-weight:normal;font-stretch:normal;writing-mode:lr-tb;text-anchor:start;fill:#000000;fill-opacity:1.0000000;stroke:none;stroke-width:1.0000000pt;stroke-linecap:butt;stroke-linejoin:miter;stroke-opacity:1.0000000;font-family:Bitstream Vera Sans"
     id="text2897" />
  <g
     id="g2806">
    <path
       d="M 46.352165,145.54748 C 69.810441,145.54748 69.810441,124.65767 93.268724,124.65767 C 116.72698,124.65767 116.72698,145.54748 140.18525,145.54748 C 163.64355,145.54748 163.64355,124.65767 187.10180,124.65767 C 210.56007,124.65767 210.56007,145.54748 234.01836,145.54748 C 257.47663,145.54748 257.47663,124.65767 280.93489,124.65767 C 304.39316,124.65767 304.39316,145.54748 327.85144,145.54748"
       style="fill:none;fill-opacity:1.0000000;fill-rule:evenodd;stroke:#000000;stroke-width:12.500000;stroke-linecap:butt;stroke-linejoin:miter;stroke-miterlimit:4.0000000;stroke-opacity:1.0000000"
       id="path681" />
    <path
       d="M 37.456350,106.87084 L 71.853509,278.85663 L 302.16847,278.85663 L 337.60154,106.87084"
       style="fill:none;fill-opacity:1.0000000;fill-rule:evenodd;stroke:#000000;stroke-width:12.500000;stroke-linecap:round;stroke-linejoin:round;stroke-miterlimit:4.0000000;stroke-dashoffset:0.0000000;stroke-opacity:1.0000000"
       id="path682" />
  </g>
</svg>
