<?xml version="1.0" encoding="UTF-8" standalone="no"?>
<!-- Created with Inkscape (http://www.inkscape.org/) -->
<svg
   xmlns:svg="http://www.w3.org/2000/svg"
   xmlns="http://www.w3.org/2000/svg"
   version="1.0"
   x="0.0000000"
   y="0.0000000"
   width="375.00000"
   height="375.00000"
   id="svg1">
  <defs
     id="defs3" />
  <path
     d="M 111.95847,173.71152 L 111.95847,167.24277 C 113.73971,168.08652 115.54440,168.73105 117.37254,169.17636 C 119.20065,169.62168 120.99361,169.84433 122.75144,169.84433 C 127.43892,169.84433 131.01313,168.27402 133.47410,165.13339 C 135.95844,161.96934 137.37641,157.17638 137.72800,150.75449 C 136.36860,152.77013 134.64594,154.31701 132.56004,155.39511 C 130.47407,156.47325 128.16548,157.01232 125.63425,157.01230 C 120.38424,157.01232 116.22409,155.43029 113.15379,152.26620 C 110.10690,149.07873 108.58347,144.73108 108.58347,139.22324 C 108.58347,133.83265 110.17722,129.50844 113.36472,126.25058 C 116.55221,122.99282 120.79439,121.36391 126.09129,121.36386 C 132.16157,121.36391 136.79047,123.69594 139.97800,128.35995 C 143.18890,133.00062 144.79437,139.75061 144.79441,148.60995 C 144.79437,156.88341 142.82562,163.49278 138.88816,168.43808 C 134.97407,173.35996 129.70064,175.82089 123.06785,175.82089 C 121.28658,175.82089 119.48190,175.64511 117.65379,175.29355 C 115.82565,174.94199 113.92721,174.41464 111.95847,173.71152 M 126.09129,151.45761 C 129.27876,151.45763 131.79829,150.36779 133.64988,148.18808 C 135.52485,146.00842 136.46235,143.02014 136.46238,139.22324 C 136.46235,135.44984 135.52485,132.47328 133.64988,130.29355 C 131.79829,128.09047 129.27876,126.98891 126.09129,126.98886 C 122.90377,126.98891 120.37252,128.09047 118.49754,130.29355 C 116.64596,132.47328 115.72018,135.44984 115.72019,139.22324 C 115.72018,143.02014 116.64596,146.00842 118.49754,148.18808 C 120.37252,150.36779 122.90377,151.45763 126.09129,151.45761 M 157.66160,122.31308 L 185.54050,122.31308 L 185.54050,128.28964 L 164.16550,128.28964 L 164.16550,141.15683 C 165.19674,140.80530 166.22799,140.54749 167.25925,140.38339 C 168.29049,140.19593 169.32174,140.10218 170.35300,140.10214 C 176.21235,140.10218 180.85297,141.70764 184.27488,144.91855 C 187.69672,148.12951 189.40765,152.47716 189.40769,157.96152 C 189.40765,163.60997 187.64984,168.00449 184.13425,171.14511 C 180.61860,174.26230 175.66157,175.82089 169.26316,175.82089 C 167.06002,175.82089 164.81002,175.63339 162.51316,175.25839 C 160.23971,174.88339 157.88425,174.32089 155.44675,173.57089 L 155.44675,166.43417 C 157.55612,167.58262 159.73581,168.43809 161.98582,169.00058 C 164.23580,169.56309 166.61471,169.84433 169.12254,169.84433 C 173.17720,169.84433 176.38813,168.77793 178.75535,166.64511 C 181.12250,164.51231 182.30610,161.61778 182.30613,157.96152 C 182.30610,154.30529 181.12250,151.41076 178.75535,149.27792 C 176.38813,147.14514 173.17720,146.07873 169.12254,146.07870 C 167.22408,146.07873 165.32565,146.28967 163.42722,146.71152 C 161.55221,147.13342 159.63034,147.78967 157.66160,148.68027 L 157.66160,122.31308"
     transform="scale(1.255735,1.453502)"
     style="font-size:72.000000px;font-style:normal;font-variant:normal;font-weight:normal;font-stretch:normal;writing-mode:lr-tb;text-anchor:start;fill:#000000;fill-opacity:1.0000000;stroke:none;stroke-width:1.0000000pt;stroke-linecap:butt;stroke-linejoin:miter;stroke-opacity:1.0000000;font-family:Bitstream Vera Sans"
     id="text2897" />
  <g
     id="g2806">
    <path
       d="M 46.352165,145.54748 C 69.810441,145.54748 69.810441,124.65767 93.268724,124.65767 C 116.72698,124.65767 116.72698,145.54748 140.18525,145.54748 C 163.64355,145.54748 163.64355,124.65767 187.10180,124.65767 C 210.56007,124.65767 210.56007,145.54748 234.01836,145.54748 C 257.47663,145.54748 257.47663,124.65767 280.93489,124.65767 C 304.39316,124.65767 304.39316,145.54748 327.85144,145.54748"
       style="fill:none;fill-opacity:1.0000000;fill-rule:evenodd;stroke:#000000;stroke-width:12.500000;stroke-linecap:butt;stroke-linejoin:miter;stroke-miterlimit:4.0000000;stroke-opacity:1.0000000"
       id="path678" />
    <path
       d="M 37.456350,106.87084 L 71.853509,278.85663 L 302.16847,278.85663 L 337.60154,106.87084"
       style="fill:none;fill-opacity:1.0000000;fill-rule:evenodd;stroke:#000000;stroke-width:12.500000;stroke-linecap:round;stroke-linejoin:round;stroke-miterlimit:4.0000000;stroke-dashoffset:0.0000000;stroke-opacity:1.0000000"
       id="path679" />
  </g>
</svg>
