<?xml version="1.0" encoding="UTF-8" standalone="no"?>
<!-- Created with Inkscape (http://www.inkscape.org/) -->
<svg
   xmlns:svg="http://www.w3.org/2000/svg"
   xmlns="http://www.w3.org/2000/svg"
   version="1.0"
   x="0.0000000"
   y="0.0000000"
   width="375.00000"
   height="375.00000"
   id="svg1">
  <defs
     id="defs3" />
  <path
     d="M 164.11859,78.998562 C 161.99905,88.941999 159.87951,98.885435 157.75998,108.82887 C 152.48618,116.13214 145.13766,122.40010 142.89146,131.36326 C 140.54591,137.65735 138.13483,143.93245 136.06336,150.31641 C 137.49680,164.71481 138.93025,179.11320 140.36367,193.51160 C 144.92326,198.24854 154.57981,198.59069 156.55825,191.28651 C 158.21002,184.47375 155.51220,177.47819 157.10558,170.62895 C 157.02790,166.16358 155.12653,155.04219 159.17279,155.05893 C 159.58640,162.57397 157.96376,170.03647 157.77381,177.55108 C 156.71234,186.70682 156.79093,195.93475 158.20753,205.04663 C 159.68744,219.46867 161.16735,233.89072 162.64726,248.31277 C 167.13959,252.62987 176.64088,250.81062 176.87313,244.07968 C 177.09111,236.51433 176.31015,228.94439 176.40778,221.36372 C 176.11796,209.62525 175.82817,197.88677 175.53838,186.14829 C 176.72643,209.96280 177.91448,233.77732 179.10252,257.59183 C 183.84117,261.61214 192.89802,262.24948 194.65942,254.98670 C 195.80887,247.88956 194.48345,240.64806 195.20911,233.48511 C 195.43178,217.97396 195.65445,202.46281 195.87712,186.95166 C 196.43476,208.47887 196.99239,230.00609 197.55003,251.53330 C 202.98915,255.93385 215.17079,253.97683 213.41908,245.42367 C 214.12829,226.11408 214.83751,206.80450 215.54674,187.49490 C 215.65826,204.75060 215.76979,222.00629 215.88131,239.26199 C 221.81365,242.20650 231.28424,239.40231 229.84732,231.75653 C 232.05866,208.48949 232.84574,185.02962 237.52967,162.04636 C 239.25894,155.19516 236.42353,148.51244 235.54299,141.74498 C 234.43438,134.25468 231.75170,127.14925 228.09911,120.47273 C 224.91943,114.65000 222.76110,108.42624 222.58596,101.82213 C 221.81202,95.129023 221.03808,88.435924 220.26416,81.742823"
     style="fill:#ffffff;fill-opacity:0.0000000;fill-rule:nonzero;stroke:#000000;stroke-width:6.6433678;stroke-linecap:round;stroke-linejoin:round;stroke-miterlimit:4.0000000;stroke-opacity:1.0000000"
     id="path924" />
  <path
     d="M 37.456350,106.87084 L 71.853509,278.85663 L 302.16847,278.85663 L 337.60154,106.87084"
     style="fill:none;fill-opacity:1.0000000;fill-rule:evenodd;stroke:#000000;stroke-width:12.500000;stroke-linecap:round;stroke-linejoin:round;stroke-miterlimit:4.0000000;stroke-dashoffset:0.0000000;stroke-opacity:1.0000000"
     id="path651" />
  <g
     id="g13088">
    <path
       d="M 45.759475,145.54748 C 69.217751,145.54748 69.217751,124.65767 92.676034,124.65767 C 116.13428,124.65767 116.13428,145.54748 139.59255,145.54748"
       style="fill:none;fill-opacity:1.0000000;fill-rule:evenodd;stroke:#140911;stroke-width:12.500000;stroke-linecap:butt;stroke-linejoin:miter;stroke-miterlimit:4.0000000;stroke-opacity:1.0000000"
       id="path650" />
    <path
       d="M 234.31471,145.54748 C 257.77298,145.54748 257.77298,124.65767 281.23124,124.65767 C 304.68951,124.65767 304.68951,145.54748 328.14779,145.54748"
       style="fill:none;fill-opacity:1.0000000;fill-rule:evenodd;stroke:#1b0c16;stroke-width:12.500000;stroke-linecap:butt;stroke-linejoin:miter;stroke-miterlimit:4.0000000;stroke-opacity:1.0000000"
       id="path12465" />
  </g>
</svg>
