<svg xmlns="http://www.w3.org/2000/svg" viewBox="0 0 2312 2491">
    <path class="fil0" d="M1041.57 89.47c-5.25,113.7 37.12,74.36 57.27,146.22 21.35,76.16 -12.68,99.5 28.87,183.04 37.03,74.46 1.06,101.35 54.55,156.72 65.1,67.38 50.45,101.79 50.43,227.2 0.02,116.4 3.6,255.62 -43.99,332.87 -62.14,-4.14 -176.63,-163.16 -227.48,-210.82 -30.22,-28.32 -23.02,-31.43 -47.79,-57.35 -26.28,-22.54 -11.61,-42.61 -73.1,-67.23 -126.24,-126.93 -79.17,-31.61 -238.43,-75.8 -133.16,-36.94 -92.8,12.44 -163.2,29.24 -53.36,12.74 -44.06,-4.57 -92.09,25.4 -30.75,19.18 -14.38,28.53 -79.05,22.59 -136.47,-12.53 -133,-85.76 -149.31,-201.3 -64.14,-1.73 -89.6,15.5 -109.06,66.79 -18.56,48.94 -7.3,103.64 18.51,139.07 9.31,12.79 5.63,6.8 16.84,18.9 100.61,108.55 24.81,121.35 202.91,111.26 17.9,-23.07 14.16,-13.25 29.34,-43.49 86.7,0.74 27.99,34.57 222.14,34.16 207.66,-0.45 90.44,-43 233.73,30.18 86.22,44.03 41.42,5.09 71.04,75.57 38.34,91.23 182.08,250.23 250.31,324.72 139.72,152.53 34.06,131.6 299.88,173.41 67.46,10.61 98.52,12.78 158.09,27.26 48.77,11.86 144.94,19.73 192.55,40.51 161.83,70.61 154.76,130.6 79.18,551.15 -7.87,40.59 69.29,57.53 -3.84,185.33l46.44 136.51c60.29,105.73 102.75,-260.21 103.13,-262.96l67.04 -563.15c123.48,-6.83 295.23,-34.38 292.59,-92.48 25.43,-35.87 32.01,-71.52 4.38,-107.83 -119.92,-157.59 -83.75,-24.13 -242.67,-53.47 -32.26,-19.37 -18.74,-64.51 -18.45,-109.7 -0.41,-120.98 -22.47,-232.84 -22.82,-350.32 -0.26,-87.46 -14.47,-272.71 -49.18,-327.19 -77.41,-8.25 -84.5,15.24 -78.37,75.64 -36.29,73.26 -38.28,23.4 -38.22,134.22 0.04,70.28 22.66,140.1 23.45,210.44l-23.16 152.4c-4.38,34.46 -13.67,74.55 -74.7,51.24l-95.47 -92.55c-16.64,-17.85 -25.38,-31.92 -41.04,-52.17 -60.79,-78.62 -82.44,-85.42 -91.05,-95.89 -38.17,-46.36 12.2,-40.74 -80.52,-72.61l-37.12 -43.21 -4.94 -158.69c-13.87,-118.12 -27.95,-62.49 -93.16,-237.01 -19.78,-52.95 -79.62,-117.12 -81.04,-248.65 59.36,-133.62 24.07,-13.97 161.92,-130.36l-0.08 -66.29c-63.95,-72.13 -98.18,2.69 -288.66,14.47 -78.44,19.02 -76.58,44.02 -76.58,44.02z"/>
</svg>