<svg xmlns="http://www.w3.org/2000/svg" viewBox="0 0 11515.89 9904.11">
    <path class="fil0" d="M2057.73 1359.72l-425.36 -63.11c-50.05,-111.95 -34.1,-113.3 -106.98,-202.89l-163.64 -255.83c320.49,183.25 119.33,-148.88 6.69,-202.78 -198.66,-163.49 -858.54,-225.2 -1183.5,119.88 -343.16,364.4 -148.83,832.86 99.6,1179.7l63.14 91.68c87.59,111.11 171.25,110.99 308.76,165.59 16.24,6.44 28.12,10.76 44.31,17.94l140.47 78.04c-0.43,217.21 -439.24,1276.16 -444.28,2151.4 -2.41,415.38 47.11,771.5 48.99,1228.85 4.95,1214.01 -240.08,601.14 -32.46,1147.43 422.56,33.83 660.51,-79.48 896.74,-267.23 -1.14,-323.01 -164.46,-671.62 -3.41,-969.02l-98.96 -1617.18c228.15,-174.55 519.8,-102.54 775.98,-8.3l652.49 327.06c9.78,6.66 87.65,62.32 90.54,64.92 50.97,45.37 22.43,16.28 76.09,83.4 248.09,310.24 265,807.6 643.52,985.37 549.08,257.88 523.37,769.16 631.99,1328.4 75.68,389.82 112.92,905.22 450.42,1133.97l228.06 126.82c356.49,115.6 801.4,234.56 1056.25,530.3 191.13,221.81 290,377.15 617.01,425.43 263.96,38.96 243.01,60.87 393.71,202.93 146.21,137.81 223.45,171.68 332.07,341.02 153,238.52 385.92,601.12 706.82,263.23 107.92,-113.62 170.91,-231.16 133.38,-450.28 -34.21,-199.74 -151.28,-252.01 -272.79,-383.36 -409.4,-392.31 56.54,-328.15 -500.68,-609.16 -155.71,-65.04 -378.24,-214.82 -513.08,-324.63 -152.67,-124.34 -193.47,-237.43 -346.89,-316.83 -124.22,-64.3 -279.87,-109.75 -427.82,-184.97 -571.7,-290.65 -732.92,-416.86 -740.18,-1214.42 -3.5,-385.7 -86.74,-995.68 97.17,-1237.33 109.76,-99.27 429.92,-78.47 573.48,-48.99 184.59,37.91 441.04,174.13 699.45,264.42 649.65,226.15 1788.2,400.81 2301.67,575.31 695.96,236.55 1273.89,18.91 1622.28,225.49 388.21,230.21 180.95,227.35 354.08,568.93 321.74,400.45 354.49,177.25 545.31,74.5 354.39,-349.16 -154.46,-681.89 -31.33,-1078.95 -88.83,-87.57 -159.74,-110.06 -258.98,-170.11 -356.15,-215.5 -566.63,-1.58 -777.29,-425.5 -541.44,-36.8 -611.84,-150.93 -1043.32,-196.97 -1016.69,-108.43 -1059.3,-336.17 -1464.9,-383.71 -455.33,-53.39 -947.83,-271.31 -1311.71,-543.61 -703.03,-526.09 -284.4,88.04 -971.63,-877.83 -105.75,-148.6 -183.53,-144.82 -378.18,-221.09 -297.21,-116.44 -1520.49,-467.79 -1641.82,-827.01 -7.43,-267.76 25.77,-265.57 156.07,-407.01 814.04,-883.73 944.19,-663.43 2056.7,-425.77 584.12,124.8 392.54,174.63 659.93,517.62 261.46,15.64 434.93,85.6 541.25,-107.92 84.41,-153.68 89.39,-414.63 36.76,-563.3 -107.63,-304 -315.14,-330.79 -553.15,-477.06 -763.76,-469.36 -1063.17,-183.4 -1661.56,-387.8 -191.03,-65.25 3.71,4.49 -102.71,-50.2 -117.85,-60.54 26.61,-24.63 -125.79,-61.82 -128.14,-31.29 -412.44,-11.97 -564.76,-6.33 -118.75,282.67 -202.18,204.1 -466.96,366.45l-209.38 142.08c-8.65,6.54 -19.38,16.92 -28.35,23.34 -138.26,98.99 -285.92,118.12 -567.19,308.65 -162.1,109.82 -394.71,197.64 -507.83,360.04l-114.31 148.07z"/>
</svg>